:FULLY-SPECIFIED
:FORCE-ALL-JOINTS-BE-3DOF
:DEGREES
747
root 4.13836 16.7877 14.4637 -163.457 -8.53841 -170.957
lfemur -32.0505 1.53093 -14.7245
ltibia 45.0221 -0 0
lfoot -28.4007 5.33499 -0.144873
ltoes 6.14754 -0 0
rfemur -27.5044 -32.4107 10.8288
rtibia 106.454 -0 0
rfoot 15.9794 3.59137 0.0639237
rtoes 17.5366 -0 0
lowerback 2.63929 6.69892 -2.02726
upperback -1.3248 8.80857 -1.4307
thorax -2.89768 4.40872 -0.7966
lowerneck -6.55089 -8.52771 -1.37619
upperneck -2.12138 -11.4693 5.41726
head 0.849608 -5.75137 1.57674
lclavicle -0 0 0
lhumerus -54.5082 -5.98966 74.8241
lradius 48.7857 -0 0
lwrist 16.2516 0 0
lhand -27.982 -4.22639 0.0116316
lfingers 0 -0 0
lthumb -1.3685 25.7371 0.0114505
rclavicle -0 0 0
rhumerus 26.1048 39.2795 -66.3912
rradius 95.5012 -0 0
rwrist -0.895659 0 0
rhand -21.2885 -21.1314 0.206347
rfingers 0 -0 0
rthumb 5.09445 -50.9871 0.203992
748
root 4.09853 16.6397 14.6593 -163.346 -6.44015 -171.116
lfemur -33.648 3.26937 -15.8989
ltibia 47.5376 -0 0
lfoot -29.6079 6.48144 -0.12071
ltoes 5.98248 -0 0
rfemur -27.6395 -32.6422 12.5641
rtibia 104.708 -0 0
rfoot 15.2054 2.80255 0.0532664
rtoes 17.3761 -0 0
lowerback 2.87813 6.50893 -2.42038
upperback -1.19257 8.52556 -1.58027
thorax -2.92958 4.27063 -0.744399
lowerneck -6.40817 -8.62118 -1.51714
upperneck -2.17905 -11.5947 5.79366
head 0.84636 -5.81629 1.71844
lclavicle -0 0 0
lhumerus -53.5251 -5.61215 77.1122
lradius 48.9818 -0 0
lwrist 15.4186 0 0
lhand -28.6545 -4.39158 0.00969276
lfingers 0 -0 0
lthumb -2.01795 25.5687 0.00954185
rclavicle -0 0 0
rhumerus 23.1927 41.9295 -69.4492
rradius 95.5785 -0 0
rwrist 0.115374 0 0
rhand -19.7491 -19.8506 0.171921
rfingers 0 -0 0
rthumb 6.58085 -49.6758 0.169959
749
root 4.05869 16.4917 14.855 -163.242 -4.34159 -171.27
lfemur -35.2844 4.97401 -17.124
ltibia 50.0532 -0 0
lfoot -30.8144 7.62712 -0.0724058
ltoes 5.81741 -0 0
rfemur -27.7831 -32.8701 14.3045
rtibia 102.962 -0 0
rfoot 14.4316 2.01394 0.0319559
rtoes 17.2157 -0 0
lowerback 3.11818 6.32058 -2.81414
upperback -1.05969 8.24288 -1.73038
thorax -2.96161 4.13257 -0.692129
lowerneck -6.26518 -8.71431 -1.65836
upperneck -2.23759 -11.7198 6.17036
head 0.842951 -5.8812 1.86015
lclavicle -0 0 0
lhumerus -52.5282 -5.27403 79.4051
lradius 49.1779 -0 0
lwrist 14.5857 0 0
lhand -29.3269 -4.55674 0.00581537
lfingers 0 -0 0
lthumb -2.66739 25.4004 0.00572485
rclavicle -0 0 0
rhumerus 19.961 44.4514 -72.8237
rradius 95.6559 -0 0
rwrist 1.12641 0 0
rhand -18.2108 -18.5712 0.10311
rfingers 0 -0 0
rthumb 8.06608 -48.3658 0.101935
750
root 4.01886 16.3437 15.0506 -163.144 -2.24277 188.58
lfemur -36.9621 6.6426 -18.4013
ltibia 52.5687 0 0
lfoot -32.0197 8.77153 0
ltoes 5.65235 0 0
rfemur -27.9354 -33.0942 16.05
rtibia 101.216 0 0
rfoot 13.6582 1.2257 0
rtoes 17.0552 0 0
lowerback 3.35945 6.13388 -3.20855
upperback -0.926159 7.96056 -1.88105
thorax -2.99375 3.99454 -0.639791
lowerneck -6.12193 -8.80708 -1.79985
upperneck -2.297 -11.8445 6.54736
head 0.839379 -5.94611 2.00189
lclavicle -7.55382e-15 2.8625e-14 0
lhumerus -51.519 -4.97593 81.7024
lradius 49.374 0 0
lwrist 13.7527 0 0
lhand -29.9993 -4.72184 0
lfingers 7.12502 0 0
lthumb -3.31682 25.2321 0
rclavicle -7.55382e-15 2.8625e-14 0
rhumerus 16.3743 46.8227 -76.5508
rradius 95.7332 0 0
rwrist 2.13744 0 0
rhand -16.6745 -17.2941 0
rfingers 7.12502 0 0
rthumb 9.54937 -767.058 0
751
root 3.94556 16.2779 15.2112 -163.229 0.730495 -171.404
lfemur -37.7168 8.52304 -19.1876
ltibia 53.7158 -0 0
lfoot -32.2446 9.29415 -0.00615515
ltoes 6.576 -0 0
rfemur -27.3694 -32.9538 16.9382
rtibia 99.2125 -0 0
rfoot 13.749 0.0100905 -0.00578887
rtoes 18.336 -0 0
lowerback 3.44103 6.03602 -3.34841
upperback -0.856411 7.83825 -2.13996
thorax -2.94797 3.94223 -0.82361
lowerneck -5.99643 -8.84795 -1.83344
upperneck -2.19983 -11.8563 6.53934
head 0.85141 -5.92653 2.00824
lclavicle -0 0 0
lhumerus -51.2483 -5.81672 82.9375
lradius 51.0754 -0 0
lwrist 13.5555 0 0
lhand -29.9429 -5.21803 -0.00146647
lfingers 0 -0 0
lthumb -3.26232 24.7367 -0.00141403
rclavicle -0 0 0
rhumerus 12.9112 48.2409 -79.2691
rradius 94.4704 -0 0
rwrist 2.69955 0 0
rhand -16.7819 -17.3465 0.000294468
rfingers 0 -0 0
rthumb 9.44572 -47.1149 0.000308562
752
root 3.87226 16.2122 15.3718 -163.313 3.70378 -171.392
lfemur -38.5017 10.3928 -20.0032
ltibia 54.863 -0 0
lfoot -32.4695 9.81679 -0.0102589
ltoes 7.49965 -0 0
rfemur -26.8018 -32.8208 17.8267
rtibia 97.2091 -0 0
rfoot 13.84 -1.20553 -0.00964958
rtoes 19.6168 -0 0
lowerback 3.52283 5.93835 -3.48838
upperback -0.786127 7.71626 -2.39895
thorax -2.90202 3.89007 -1.00746
lowerneck -5.87089 -8.88874 -1.86712
upperneck -2.10266 -11.8681 6.5313
head 0.863442 -5.90695 2.0146
lclavicle -0 0 0
lhumerus -50.9954 -6.66312 84.1706
lradius 52.7767 -0 0
lwrist 13.3583 0 0
lhand -29.8864 -5.71422 -0.00244419
lfingers 0 -0 0
lthumb -3.2078 24.2413 -0.00235677
rclavicle -0 0 0
rhumerus 9.25306 49.5424 -82.1892
rradius 93.2076 -0 0
rwrist 3.26167 0 0
rhand -16.8893 -17.3988 0.00049078
rfingers 0 -0 0
rthumb 9.34208 -47.1717 0.00051427
753
root 3.79896 16.1464 15.5324 -163.396 6.67708 -171.384
lfemur -39.3189 12.2512 -20.8503
ltibia 56.0101 -0 0
lfoot -32.6944 10.3394 -0.0123109
ltoes 8.4233 -0 0
rfemur -26.2326 -32.6952 18.7154
rtibia 95.2056 -0 0
rfoot 13.9309 -2.42115 -0.0115804
rtoes 20.8976 -0 0
lowerback 3.60486 5.84089 -3.62847
upperback -0.715307 7.59458 -2.65801
thorax -2.8559 3.83806 -1.19134
lowerneck -5.74531 -8.92946 -1.90089
upperneck -2.00548 -11.8799 6.52324
head 0.875476 -5.88738 2.02096
lclavicle -0 0 0
lhumerus -50.7606 -7.51473 85.4021
lradius 54.4781 -0 0
lwrist 13.1611 0 0
lhand -29.83 -6.21042 -0.00293306
lfingers 0 -0 0
lthumb -3.15329 23.7459 -0.00282816
rclavicle -0 0 0
rhumerus 5.39941 50.7153 -85.3106
rradius 91.9448 -0 0
rwrist 3.82378 0 0
rhand -16.9967 -17.4512 0.000588937
rfingers 0 -0 0
rthumb 9.23843 -47.2286 0.000617125
754
root 3.72566 16.0807 15.6931 -163.48 9.65039 -171.381
lfemur -40.1706 14.0973 -21.7311
ltibia 57.1572 -0 0
lfoot -32.9194 10.8621 -0.0123109
ltoes 9.34695 -0 0
rfemur -25.6619 -32.577 19.6043
rtibia 93.2022 -0 0
rfoot 14.022 -3.63677 -0.0115804
rtoes 22.1785 -0 0
lowerback 3.68712 5.74362 -3.76868
upperback -0.643953 7.47323 -2.91716
thorax -2.80963 3.7862 -1.37525
lowerneck -5.6197 -8.97011 -1.93476
upperneck -1.90829 -11.8916 6.51516
head 0.887512 -5.8678 2.02732
lclavicle -0 0 0
lhumerus -50.5437 -8.37115 86.6327
lradius 56.1794 -0 0
lwrist 12.9638 0 0
lhand -29.7735 -6.70661 -0.00293306
lfingers 0 -0 0
lthumb -3.09876 23.2506 -0.00282816
rclavicle -0 0 0
rhumerus 1.35513 51.7477 -88.6278
rradius 90.6819 -0 0
rwrist 4.38589 0 0
rhand -17.1042 -17.5035 0.000588937
rfingers 0 -0 0
rthumb 9.13478 -47.2854 0.000617125
755
root 3.65236 16.0149 15.8537 -163.565 12.6237 -171.382
lfemur -41.059 15.9301 -22.648
ltibia 58.3043 -0 0
lfoot -33.1443 11.3847 -0.0102589
ltoes 10.2706 -0 0
rfemur -25.0899 -32.4663 20.4935
rtibia 91.1987 -0 0
rfoot 14.1129 -4.85239 -0.00964958
rtoes 23.4593 -0 0
lowerback 3.7696 5.64656 -3.909
upperback -0.572066 7.35219 -3.17638
thorax -2.76318 3.73448 -1.55919
lowerneck -5.49404 -9.01068 -1.96872
upperneck -1.8111 -11.9034 6.50706
head 0.89955 -5.84823 2.03368
lclavicle -0 0 0
lhumerus -50.3451 -9.23198 87.8629
lradius 57.8808 -0 0
lwrist 12.7666 0 0
lhand -29.7171 -7.20281 -0.00244419
lfingers 0 -0 0
lthumb -3.04425 22.7552 -0.00235677
rclavicle -0 0 0
rhumerus -2.86841 52.6276 -92.1283
rradius 89.4191 -0 0
rwrist 4.948 0 0
rhand -17.2116 -17.5559 0.00049078
rfingers 0 -0 0
rthumb 9.03113 -47.3423 0.00051427
756
root 3.57906 15.9492 16.0143 -163.651 15.597 -171.388
lfemur -41.9867 17.7487 -23.6034
ltibia 59.4515 -0 0
lfoot -33.3692 11.9074 -0.00615515
ltoes 11.1942 -0 0
rfemur -24.5165 -32.3631 21.3828
rtibia 89.1953 -0 0
rfoot 14.2039 -6.06801 -0.00578887
rtoes 24.7401 -0 0
lowerback 3.8523 5.54969 -4.04944
upperback -0.499647 7.23148 -3.43569
thorax -2.71658 3.68292 -1.74317
lowerneck -5.36835 -9.05118 -2.00278
upperneck -1.7139 -11.9151 6.49894
head 0.91159 -5.82866 2.04006
lclavicle -0 0 0
lhumerus -50.1648 -10.0968 89.0931
lradius 59.5821 -0 0
lwrist 12.5694 0 0
lhand -29.6606 -7.699 -0.00146647
lfingers 0 -0 0
lthumb -2.98973 22.2598 -0.00141403
rclavicle -0 0 0
rhumerus -7.25253 53.344 -95.7929
rradius 88.1563 -0 0
rwrist 5.51012 0 0
rhand -17.319 -17.6082 0.000294468
rfingers 0 -0 0
rthumb 8.92749 -47.3991 0.000308562
757
root 3.50576 15.8834 16.1749 -163.738 18.5703 188.602
lfemur -42.9564 19.5519 -24.6002
ltibia 60.5986 0 0
lfoot -33.5941 12.43 0
ltoes 12.1179 0 0
rfemur -23.942 -32.2674 22.2724
rtibia 87.1918 0 0
rfoot 14.2947 -7.28362 0
rtoes 26.0209 0 0
lowerback 3.93523 5.45303 -4.19
upperback -0.426697 7.11109 -3.69508
thorax -2.66981 3.6315 -1.92717
lowerneck -5.24262 -9.09161 -2.03693
upperneck -1.6167 -11.9268 6.4908
head 0.923631 -5.80909 2.04643
lclavicle -3.02153e-14 -9.54166e-15 0
lhumerus -50.0029 -10.9653 90.3241
lradius 61.2835 0 0
lwrist 12.3722 0 0
lhand -29.6042 -8.19519 0
lfingers 7.12502 0 0
lthumb -2.93523 21.7644 0
rclavicle -3.02153e-14 -9.54166e-15 0
rhumerus -11.771 53.887 -99.5944
rradius 86.8935 0 0
rwrist 6.07223 0 0
rhand -17.4264 -17.6606 0
rfingers 7.12502 0 0
rthumb 8.82384 -767.456 0
758
root 3.40763 15.8751 16.2981 -163.58 22.0995 -171.066
lfemur -43.3522 20.5121 -24.8582
ltibia 60.7194 -0 0
lfoot -33.4991 13.9784 0.00771637
ltoes 13.3403 -0 0
rfemur -23.1451 -32.2755 22.5822
rtibia 85.1304 -0 0
rfoot 13.0728 -9.00869 0.110818
rtoes 23.8014 -0 0
lowerback 3.74837 5.39702 -4.02222
upperback -0.483685 7.05018 -3.74166
thorax -2.59925 3.59719 -2.0454
lowerneck -5.21812 -8.99298 -2.02825
upperneck -1.52888 -11.806 6.32645
head 0.93025 -5.75466 1.99717
lclavicle 0 0 0
lhumerus -50.2409 -10.9696 90.7135
lradius 62.3241 -0 0
lwrist 13.0266 0 0
lhand -29.0169 -8.01136 0.00565464
lfingers 0 -0 0
lthumb -2.36803 21.9508 0.00553626
rclavicle 0 0 0
rhumerus -13.6443 54.2307 -100.412
rradius 86.151 -0 0
rwrist 6.27985 0 0
rhand -16.6718 -17.6868 -0.00103699
rfingers 0 -0 0
rthumb 9.55161 -47.442 0.000533523
759
root 3.30951 15.8669 16.4214 -163.396 25.6278 -170.714
lfemur -43.7551 21.4705 -25.1249
ltibia 60.8402 -0 0
lfoot -33.404 15.5268 0.0128638
ltoes 14.5628 -0 0
rfemur -22.3482 -32.2872 22.8918
rtibia 83.0689 -0 0
rfoot 11.8482 -10.7357 0.184781
rtoes 21.582 -0 0
lowerback 3.56137 5.34156 -3.85428
upperback -0.540616 6.98922 -3.78817
thorax -2.52861 3.56302 -2.16366
lowerneck -5.19362 -8.89436 -2.01954
upperneck -1.44145 -11.685 6.16237
head 0.936822 -5.70022 1.94793
lclavicle 0 0 0
lhumerus -50.4789 -10.9724 91.1029
lradius 63.3646 -0 0
lwrist 13.6811 0 0
lhand -28.4296 -7.82749 0.00942476
lfingers 0 -0 0
lthumb -1.80081 22.1372 0.00922743
rclavicle 0 0 0
rhumerus -15.5412 54.5584 -101.255
rradius 85.4086 -0 0
rwrist 6.48748 0 0
rhand -15.9172 -17.7131 -0.00172841
rfingers 0 -0 0
rthumb 10.2794 -47.428 0.000889253
